# xmcd
#
# Track frame offsets:
#	150
#	19856
#	42634
#	58381
#	80328
#	102552
#	122168
#	127161
#	141601
#	156041
#	173210
#	193770
#	212444
#	220563
#
# Disc length: 3151 seconds
#
# Revision: 1
# Processed by: cddbd v1.4PL0 Copyright (c) Steve Scherf et al.
# Submitted via: audiograbber 1.82.01
#
DISCID=d80c4d0e
DTITLE=Pino Daniele  - Che Dio ti benedica
DYEAR=1993
DGENRE=Alternative
TTITLE0=CHE DIO TI BENEDICA
TTITLE1=QUESTA PRIMAVERA 
TTITLE2=FATTE 'NA PIZZA
TTITLE3=MAL DI TE
TTITLE4=SONO UN CANTANTE DI BLUES
TTITLE5=SICILY
TTITLE6=TWO PISCES IN ALTO MARE
TTITLE7=ALLORA SI
TTITLE8=NUDA
TTITLE9=T'AGGIA VEDE' MORTA
TTITLE10=UN ANGELO VERO
TTITLE11=OCCHI BLU NON MI MOLLARE
TTITLE12=PACE E SERENITA'
TTITLE13=SOLEADO UP AND DOWN
EXTD=
EXTT0=
EXTT1=
EXTT2=
EXTT3=
EXTT4=
EXTT5=
EXTT6=
EXTT7=
EXTT8=
EXTT9=
EXTT10=
EXTT11=
EXTT12=
EXTT13=
PLAYORDER=
